<svg width="25" height="20" viewBox="0 0 25 20" fill="none" xmlns="http://www.w3.org/2000/svg">
<path d="M24.0625 10.2814C24.0625 10.4554 23.9934 10.6224 23.8703 10.7454C23.7472 10.8685 23.5803 10.9376 23.4062 10.9376H20.312L16.1186 19.3245C16.0641 19.4337 15.9803 19.5254 15.8765 19.5896C15.7728 19.6537 15.6532 19.6877 15.5312 19.6876H15.4984C15.3712 19.6814 15.2485 19.6383 15.1454 19.5635C15.0423 19.4887 14.9631 19.3855 14.9177 19.2666L8.47766 2.35937L4.75344 10.5526C4.70136 10.6674 4.61735 10.7647 4.51146 10.833C4.40556 10.9012 4.28225 10.9376 4.15625 10.9376H0.65625C0.482202 10.9376 0.315282 10.8685 0.192211 10.7454C0.0691403 10.6224 0 10.4554 0 10.2814C0 10.1073 0.0691403 9.94043 0.192211 9.81736C0.315282 9.69429 0.482202 9.62515 0.65625 9.62515H3.73406L7.93406 0.385148C7.98757 0.267198 8.07478 0.167717 8.18471 0.0992356C8.29465 0.030754 8.42239 -0.00366671 8.55184 0.000309411C8.6813 0.00428553 8.80669 0.0464805 8.91221 0.12158C9.01774 0.196679 9.09868 0.301324 9.14484 0.422336L15.6122 17.4017L19.3189 9.98827C19.3734 9.87914 19.4572 9.78735 19.561 9.72321C19.6647 9.65907 19.7843 9.62511 19.9062 9.62515H23.4062C23.5803 9.62515 23.7472 9.69429 23.8703 9.81736C23.9934 9.94043 24.0625 10.1073 24.0625 10.2814Z" fill="#007CFF"/>
</svg>
