<svg width="23" height="23" viewBox="0 0 23 23" fill="none" xmlns="http://www.w3.org/2000/svg">
<path d="M12.1638 0.00573C11.9523 -0.0126157 11.7393 0.0132054 11.5384 0.0815541C11.3374 0.149903 11.1529 0.259286 10.9964 0.40276C10.84 0.546234 10.7151 0.720665 10.6297 0.914979C10.5442 1.10929 10.5001 1.31925 10.5002 1.53151V5.97979C10.4973 6.34065 10.6233 6.69069 10.8555 6.96696C11.0877 7.24324 11.4108 7.42763 11.7667 7.48698C12.4583 7.60198 13.1033 7.91015 13.6273 8.37594C14.1514 8.84172 14.533 9.44614 14.7283 10.1195C14.9236 10.7928 14.9246 11.5077 14.7311 12.1816C14.5376 12.8554 14.1576 13.4609 13.6349 13.9281C13.1121 14.3953 12.468 14.7052 11.7767 14.8221C11.0854 14.9389 10.3751 14.858 9.72787 14.5886C9.08059 14.3193 8.52265 13.8724 8.1184 13.2996C7.71416 12.7267 7.48007 12.0513 7.44315 11.3512C7.39502 10.4018 7.59299 9.60995 8.03159 8.99636C8.24122 8.7035 8.33982 8.34562 8.30976 7.98673C8.2797 7.62784 8.12294 7.29135 7.86752 7.03745L4.8433 3.9487C4.69234 3.79801 4.51156 3.68053 4.31255 3.60378C4.11354 3.52703 3.90069 3.4927 3.68764 3.503C3.47459 3.5133 3.26604 3.56799 3.07536 3.66358C2.88467 3.75916 2.71607 3.89353 2.58034 4.05807C0.792235 6.20124 -0.12407 8.9387 0.013524 11.7264C0.151118 14.5142 1.33254 17.1481 3.32299 19.1048C5.40658 21.1688 8.22359 22.3225 11.1564 22.3128H11.3161C14.2172 22.263 16.9856 21.0883 19.0372 19.0365C21.0888 16.9847 22.2632 14.2162 22.3127 11.3151C22.3925 5.49089 17.9377 0.523074 12.1638 0.00573ZM3.58877 4.8937C3.60869 4.86975 3.63337 4.85019 3.66123 4.83626C3.68909 4.82233 3.71954 4.81433 3.75065 4.81276H3.76049C3.78815 4.81208 3.81566 4.81695 3.8414 4.8271C3.86714 4.83724 3.89058 4.85245 3.91034 4.87182L6.93456 7.96057C6.96975 7.99582 6.99186 8.04203 6.99723 8.09155C7.0026 8.14107 6.99091 8.19094 6.96409 8.23292C6.49516 8.90244 6.21417 9.68536 6.15034 10.5003H1.33784C1.47017 8.43898 2.25899 6.47422 3.58877 4.8937ZM1.33674 11.8128H6.16893C6.31331 12.911 6.81605 13.9308 7.59917 14.7141C8.3823 15.4974 9.40203 16.0005 10.5002 16.1451V20.9762C8.12177 20.8184 5.88158 19.8023 4.19609 18.1168C2.51061 16.4314 1.49452 14.1912 1.33674 11.8128ZM18.1083 18.1084C16.429 19.7993 14.1905 20.8194 11.8127 20.9773V16.1462C12.8524 16.0116 13.8231 15.5523 14.5864 14.8337C15.2729 14.1928 15.7664 13.3726 16.0109 12.4659C16.2554 11.5591 16.2413 10.602 15.97 9.70292C15.6988 8.8038 15.1814 7.99853 14.4762 7.37825C13.7711 6.75796 12.9064 6.34742 11.98 6.19307C11.9315 6.18283 11.8882 6.15584 11.8576 6.11685C11.827 6.07785 11.8111 6.02933 11.8127 5.97979V1.53151C11.8124 1.50062 11.8188 1.47003 11.8312 1.44175C11.8436 1.41347 11.8619 1.38815 11.8849 1.36745C11.9065 1.34744 11.9321 1.33222 11.96 1.3228C11.9879 1.31337 12.0174 1.30995 12.0467 1.31276C17.1381 1.76886 21.0713 6.1537 20.9991 11.2954C20.9649 13.8573 19.9269 16.3036 18.1083 18.1084Z" fill="#007CFF"/>
</svg>
