<svg width="19" height="19" viewBox="0 0 19 19" fill="none" xmlns="http://www.w3.org/2000/svg">
<path d="M19 9.5C19 9.70996 18.9166 9.91133 18.7681 10.0598C18.6197 10.2083 18.4183 10.2917 18.2083 10.2917H10.2917V18.2083C10.2917 18.4183 10.2083 18.6197 10.0598 18.7681C9.91133 18.9166 9.70996 19 9.5 19C9.29004 19 9.08867 18.9166 8.94021 18.7681C8.79174 18.6197 8.70833 18.4183 8.70833 18.2083V10.2917H0.791667C0.581704 10.2917 0.38034 10.2083 0.231874 10.0598C0.0834077 9.91133 0 9.70996 0 9.5C0 9.29004 0.0834077 9.08867 0.231874 8.94021C0.38034 8.79174 0.581704 8.70833 0.791667 8.70833H8.70833V0.791667C8.70833 0.581704 8.79174 0.38034 8.94021 0.231874C9.08867 0.0834077 9.29004 0 9.5 0C9.70996 0 9.91133 0.0834077 10.0598 0.231874C10.2083 0.38034 10.2917 0.581704 10.2917 0.791667V8.70833H18.2083C18.4183 8.70833 18.6197 8.79174 18.7681 8.94021C18.9166 9.08867 19 9.29004 19 9.5Z" fill="#007CFF"/>
</svg>
