<svg width="18" height="18" viewBox="0 0 18 18" fill="none" xmlns="http://www.w3.org/2000/svg">
<path d="M8.76563 0C7.03195 0 5.33721 0.514095 3.89571 1.47727C2.45421 2.44045 1.3307 3.80946 0.667247 5.41117C0.00379786 7.01287 -0.169791 8.77535 0.168433 10.4757C0.506657 12.1761 1.3415 13.738 2.5674 14.9639C3.79329 16.1898 5.35518 17.0246 7.05554 17.3628C8.75591 17.701 10.5184 17.5275 12.1201 16.864C13.7218 16.2006 15.0908 15.077 16.054 13.6355C17.0172 12.194 17.5313 10.4993 17.5313 8.76562C17.5285 6.44167 16.6041 4.21369 14.9608 2.57041C13.3176 0.927124 11.0896 0.00272925 8.76563 0ZM9.28125 16.4828V13.5781C9.28125 13.4414 9.22693 13.3102 9.13023 13.2135C9.03353 13.1168 8.90238 13.0625 8.76563 13.0625C8.62888 13.0625 8.49773 13.1168 8.40103 13.2135C8.30433 13.3102 8.25 13.4414 8.25 13.5781V16.4828C6.38205 16.3553 4.62348 15.5556 3.29957 14.2317C1.97565 12.9078 1.17597 11.1492 1.04844 9.28125H3.95313C4.08988 9.28125 4.22103 9.22693 4.31773 9.13023C4.41443 9.03353 4.46875 8.90238 4.46875 8.76562C4.46875 8.62887 4.41443 8.49772 4.31773 8.40102C4.22103 8.30433 4.08988 8.25 3.95313 8.25H1.04844C1.17597 6.38205 1.97565 4.62348 3.29957 3.29957C4.62348 1.97565 6.38205 1.17597 8.25 1.04844V3.95312C8.25 4.08988 8.30433 4.22103 8.40103 4.31773C8.49773 4.41442 8.62888 4.46875 8.76563 4.46875C8.90238 4.46875 9.03353 4.41442 9.13023 4.31773C9.22693 4.22103 9.28125 4.08988 9.28125 3.95312V1.04844C11.1492 1.17597 12.9078 1.97565 14.2317 3.29957C15.5556 4.62348 16.3553 6.38205 16.4828 8.25H13.5781C13.4414 8.25 13.3102 8.30433 13.2135 8.40102C13.1168 8.49772 13.0625 8.62887 13.0625 8.76562C13.0625 8.90238 13.1168 9.03353 13.2135 9.13023C13.3102 9.22693 13.4414 9.28125 13.5781 9.28125H16.4828C16.3553 11.1492 15.5556 12.9078 14.2317 14.2317C12.9078 15.5556 11.1492 16.3553 9.28125 16.4828Z" fill="#007CFF"/>
</svg>
